<svg width="56" height="62" viewBox="0 0 56 62" fill="none" xmlns="http://www.w3.org/2000/svg">
<path d="M28.1544 0.999978C20.0872 0.999978 12.5592 2.7569 7.50874 8.59491C2.45449 14.4374 -0.118492 24.3654 1.46451 36.4464C1.46451 43.2619 3.08153 48.4885 6.31726 52.4361C11.1735 58.3608 15.1552 60.5502 26.548 60.9789C44.3764 61.6498 55 46.2313 55 29.1868C55 23.6198 53.9758 18.7746 51.6242 14.6507C46.7758 6.1484 38.0804 0.999978 28.1544 0.999978Z" fill="white"/>
<path d="M1.46451 36.4464L2.45604 36.3164C2.46168 36.3595 2.46451 36.4029 2.46451 36.4464H1.46451ZM26.548 60.9789L26.5856 59.9796L26.548 60.9789ZM51.6242 14.6507L52.4929 14.1554L52.4929 14.1554L51.6242 14.6507ZM6.31726 52.4361L7.09065 51.8022L7.09065 51.8022L6.31726 52.4361ZM7.50874 8.59491L6.75247 7.94066L7.50874 8.59491ZM30.8317 0.122162C31.3816 0.172719 31.7865 0.659539 31.7359 1.2095C31.6854 1.75947 31.1986 2.16432 30.6486 2.11376L30.8317 0.122162ZM34.7409 2.81731C34.2057 2.68075 33.8826 2.13624 34.0192 1.6011C34.1557 1.06597 34.7002 0.74285 35.2354 0.879405L34.7409 2.81731ZM40.2796 2.70469C40.778 2.94251 40.9893 3.53938 40.7515 4.03784C40.5137 4.53629 39.9168 4.74758 39.4183 4.50976L40.2796 2.70469ZM43.0012 6.59574C42.5483 6.2797 42.4373 5.65633 42.7534 5.20341C43.0694 4.75049 43.6928 4.63953 44.1457 4.95557L43.0012 6.59574ZM48.2242 8.43888C48.6075 8.8365 48.5959 9.46956 48.1983 9.85286C47.8007 10.2362 47.1676 10.2245 46.7843 9.82693L48.2242 8.43888ZM49.4212 13.0356C49.105 12.5828 49.2157 11.9594 49.6684 11.6431C50.1212 11.3269 50.7446 11.4376 51.0609 11.8903L49.4212 13.0356ZM54.2742 18.0556C54.4591 18.576 54.1871 19.1478 53.6667 19.3327C53.1463 19.5176 52.5745 19.2456 52.3896 18.7252L54.2742 18.0556ZM53.8014 25.1803C53.7442 24.631 54.1432 24.1393 54.6925 24.0822C55.2418 24.025 55.7335 24.424 55.7906 24.9733L53.8014 25.1803ZM55.8656 32.5344C55.8212 33.0849 55.3389 33.4952 54.7884 33.4508C54.238 33.4063 53.8277 32.9241 53.8721 32.3736L55.8656 32.5344ZM53.0815 37.6225C53.202 37.0835 53.7366 36.7443 54.2755 36.8647C54.8145 36.9851 55.1538 37.5197 55.0334 38.0587L53.0815 37.6225ZM52.9919 44.4533C52.7761 44.9617 52.1891 45.1989 51.6807 44.9832C51.1723 44.7674 50.9351 44.1804 51.1508 43.672L52.9919 44.4533ZM48.694 48.3406C48.9924 47.8759 49.6111 47.7411 50.0758 48.0395C50.5405 48.3379 50.6754 48.9565 50.377 49.4212L48.694 48.3406ZM46.1087 54.6585C45.7117 55.0425 45.0787 55.032 44.6947 54.6351C44.3107 54.2381 44.3211 53.605 44.7181 53.221L46.1087 54.6585ZM40.5988 56.4371C41.0684 56.1465 41.6847 56.2916 41.9754 56.7613C42.266 57.2309 42.1209 57.8472 41.6512 58.1378L40.5988 56.4371ZM35.4553 60.9059C34.9255 61.062 34.3695 60.7591 34.2134 60.2293C34.0573 59.6996 34.3602 59.1436 34.89 58.9875L35.4553 60.9059ZM29.7404 59.9217C30.2911 59.8797 30.7716 60.2921 30.8136 60.8428C30.8556 61.3934 30.4432 61.8739 29.8926 61.9159L29.7404 59.9217ZM23.3538 61.7994C22.8032 61.7561 22.3919 61.2746 22.4353 60.724C22.4786 60.1734 22.96 59.7622 23.5106 59.8055L23.3538 61.7994ZM18.4861 59.13C19.0268 59.2426 19.3739 59.7722 19.2613 60.3128C19.1487 60.8535 18.6191 61.2006 18.0784 61.088L18.4861 59.13ZM11.9468 58.857C11.468 58.5817 11.303 57.9704 11.5783 57.4917C11.8536 57.0129 12.4649 56.8479 12.9437 57.1232L11.9468 58.857ZM9.1023 54.0718C9.48823 54.4669 9.48084 55.1 9.08578 55.4859C8.69072 55.8719 8.0576 55.8645 7.67167 55.4694L9.1023 54.0718ZM4.11205 51.0859C3.81695 50.6191 3.95617 50.0014 4.42301 49.7063C4.88984 49.4112 5.50751 49.5504 5.80261 50.0173L4.11205 51.0859ZM4.15425 46.7311C4.35413 47.246 4.09879 47.8254 3.58394 48.0253C3.0691 48.2251 2.4897 47.9698 2.28982 47.455L4.15425 46.7311ZM0.996654 42.7972C0.898021 42.2538 1.25858 41.7333 1.80199 41.6347C2.34539 41.5361 2.86587 41.8966 2.9645 42.44L0.996654 42.7972ZM2.52906 38.7129C2.56138 39.2642 2.14063 39.7373 1.58929 39.7697C1.03795 39.802 0.564806 39.3812 0.532488 38.8299L2.52906 38.7129ZM0.183648 33.8777C0.137943 33.3273 0.547071 32.8441 1.09746 32.7984C1.64785 32.7527 2.13108 33.1618 2.17679 33.7122L0.183648 33.8777ZM2.00028 29.3616C1.99838 29.9139 1.54912 30.3601 0.996843 30.3582C0.444562 30.3563 -0.00160805 29.907 0.000294741 29.3548L2.00028 29.3616ZM0.334002 23.92C0.401412 23.3718 0.900427 22.9821 1.44858 23.0495C1.99674 23.1169 2.38646 23.6159 2.31905 24.1641L0.334002 23.92ZM3.08903 19.9099C2.9583 20.4465 2.41733 20.7755 1.88074 20.6448C1.34415 20.5141 1.01514 19.9731 1.14587 19.4365L3.08903 19.9099ZM2.87819 14.2238C3.09784 13.7171 3.68668 13.4844 4.19341 13.704C4.70014 13.9237 4.93286 14.5125 4.71322 15.0192L2.87819 14.2238ZM6.73402 11.2701C6.4284 11.7302 5.80773 11.8553 5.34771 11.5497C4.88769 11.2441 4.76253 10.6234 5.06815 10.1634L6.73402 11.2701ZM9.07268 5.65621C9.49614 5.30167 10.1268 5.35755 10.4814 5.78101C10.8359 6.20448 10.78 6.83517 10.3566 7.18971L9.07268 5.65621ZM14.4875 4.56485C13.9881 4.80068 13.3921 4.58701 13.1562 4.08761C12.9204 3.58821 13.1341 2.99218 13.6335 2.75635L14.4875 4.56485ZM19.7397 0.770661C20.2809 0.66022 20.8091 1.00936 20.9195 1.55049C21.03 2.09162 20.6808 2.61982 20.1397 2.73026L19.7397 0.770661ZM25.12 2.0911C24.5688 2.12551 24.094 1.70657 24.0596 1.15536C24.0252 0.604144 24.4441 0.129399 24.9954 0.0949828L25.12 2.0911ZM28.1544 -2.2171e-05C29.0568 -2.2171e-05 29.9498 0.0410974 30.8317 0.122162L30.6486 2.11376C29.828 2.03833 28.996 1.99998 28.1544 1.99998V-2.2171e-05ZM35.2354 0.879405C36.9865 1.32626 38.6736 1.93848 40.2796 2.70469L39.4183 4.50976C37.9302 3.79977 36.366 3.232 34.7409 2.81731L35.2354 0.879405ZM44.1457 4.95557C45.6079 5.9759 46.9731 7.141 48.2242 8.43888L46.7843 9.82693C45.6227 8.62195 44.3564 7.54139 43.0012 6.59574L44.1457 4.95557ZM51.0609 11.8903C51.5687 12.6173 52.0466 13.3728 52.4929 14.1554L50.7555 15.1461C50.3393 14.4162 49.8939 13.7123 49.4212 13.0356L51.0609 11.8903ZM52.4929 14.1554C53.2001 15.3955 53.7912 16.6961 54.2742 18.0556L52.3896 18.7252C51.9444 17.4721 51.4018 16.2795 50.7555 15.1461L52.4929 14.1554ZM55.7906 24.9733C55.9322 26.3343 56 27.739 56 29.1868H54C54 27.8011 53.9351 26.4659 53.8014 25.1803L55.7906 24.9733ZM56 29.1868C56 30.3106 55.9549 31.4278 55.8656 32.5344L53.8721 32.3736C53.9571 31.3207 54 30.2571 54 29.1868H56ZM55.0334 38.0587C54.5378 40.2763 53.8548 42.42 52.9919 44.4533L51.1508 43.672C51.9647 41.7544 52.6113 39.7266 53.0815 37.6225L55.0334 38.0587ZM50.377 49.4212C49.1457 51.3389 47.72 53.0997 46.1087 54.6585L44.7181 53.221C46.2121 51.7757 47.5411 50.1362 48.694 48.3406L50.377 49.4212ZM41.6512 58.1378C39.7531 59.3124 37.684 60.2492 35.4553 60.9059L34.89 58.9875C36.9446 58.3821 38.8502 57.5192 40.5988 56.4371L41.6512 58.1378ZM29.8926 61.9159C28.7933 61.9998 27.6656 62.0216 26.5104 61.9782L26.5856 59.9796C27.6667 60.0203 28.7185 59.9997 29.7404 59.9217L29.8926 61.9159ZM26.5104 61.9782C25.3931 61.9361 24.3432 61.8772 23.3538 61.7994L23.5106 59.8055C24.4688 59.8809 25.4911 59.9384 26.5856 59.9796L26.5104 61.9782ZM18.0784 61.088C15.6789 60.5884 13.7028 59.8667 11.9468 58.857L12.9437 57.1232C14.4845 58.0091 16.2542 58.6653 18.4861 59.13L18.0784 61.088ZM7.67167 55.4694C6.95789 54.7388 6.25666 53.9396 5.54386 53.07L7.09065 51.8022C7.77747 52.6401 8.43952 53.3934 9.1023 54.0718L7.67167 55.4694ZM5.54386 53.07C5.02738 52.4399 4.55007 51.7788 4.11205 51.0859L5.80261 50.0173C6.19682 50.6409 6.62612 51.2354 7.09065 51.8022L5.54386 53.07ZM2.28982 47.455C1.72801 46.0078 1.29785 44.4566 0.996654 42.7972L2.9645 42.44C3.24501 43.9855 3.64247 45.4129 4.15425 46.7311L2.28982 47.455ZM0.532488 38.8299C0.48711 38.0557 0.464512 37.2614 0.464512 36.4464H2.46451C2.46451 37.2244 2.48609 37.9797 2.52906 38.7129L0.532488 38.8299ZM0.472987 36.5763C0.353571 35.6649 0.25734 34.7651 0.183648 33.8777L2.17679 33.7122C2.24782 34.5677 2.34067 35.436 2.45604 36.3164L0.472987 36.5763ZM0.000294741 29.3548C0.00678208 27.4718 0.120368 25.6572 0.334002 23.92L2.31905 24.1641C2.11551 25.8192 2.00651 27.5546 2.00028 29.3616L0.000294741 29.3548ZM1.14587 19.4365C1.59854 17.5785 2.17952 15.8357 2.87819 14.2238L4.71322 15.0192C4.0627 16.52 3.51673 18.1544 3.08903 19.9099L1.14587 19.4365ZM5.06815 10.1634C5.59347 9.37269 6.15559 8.63062 6.75247 7.94066L8.26502 9.24916C7.72586 9.8724 7.21462 10.5467 6.73402 11.2701L5.06815 10.1634ZM6.75247 7.94066C7.47838 7.10155 8.2536 6.34197 9.07268 5.65621L10.3566 7.18971C9.61901 7.80722 8.92035 8.49165 8.26502 9.24916L6.75247 7.94066ZM13.6335 2.75635C15.5552 1.84889 17.6069 1.20597 19.7397 0.770661L20.1397 2.73026C18.1376 3.13888 16.2421 3.73626 14.4875 4.56485L13.6335 2.75635ZM24.9954 0.0949828C26.0386 0.0298482 27.0931 -2.2171e-05 28.1544 -2.2171e-05V1.99998C27.1304 1.99998 26.1177 2.0288 25.12 2.0911L24.9954 0.0949828Z" fill="black"/>
</svg>
