<svg width="90" height="72" viewBox="0 0 90 72" fill="none" xmlns="http://www.w3.org/2000/svg">
<path d="M89 36.2001C89 25.7427 86.4232 15.9841 77.8608 9.43726C69.2919 2.88546 54.7307 -0.449895 37.012 1.60215C27.0159 1.60215 19.3502 3.69828 13.5604 7.89274C4.87086 14.1879 1.65978 19.3493 1.03097 34.1178C0.0469602 57.2287 22.6608 71 47.6594 71C55.8243 71 62.9306 69.6723 68.9789 66.6239C81.449 60.339 89 49.0672 89 36.2001Z" fill="white"/>
<path d="M37.012 1.60215L37.127 2.59551C37.0889 2.59993 37.0504 2.60215 37.012 2.60215V1.60215ZM1.03097 34.1178L2.03006 34.1603L1.03097 34.1178ZM68.9789 66.6239L69.429 67.5169L68.9789 66.6239ZM13.5604 7.89274L14.1471 8.70256L14.1471 8.70256L13.5604 7.89274ZM77.8608 9.43726L78.4682 8.64287L77.8608 9.43726ZM2.03006 34.1603C1.55433 45.3337 6.7648 54.2534 15.1921 60.4184C23.6438 66.6011 35.3286 70 47.6594 70V72C34.9916 72 22.8702 68.5132 14.0113 62.0326C5.12805 55.5341 -0.476399 46.0128 0.0318744 34.0752L2.03006 34.1603ZM47.6594 70C55.7201 70 62.6602 68.6887 68.5289 65.7309L69.429 67.5169C63.2009 70.6559 55.9285 72 47.6594 72V70ZM68.5289 65.7309C80.708 59.5927 88 48.6403 88 36.2001H90C90 49.494 82.19 61.0854 69.429 67.5169L68.5289 65.7309ZM37.012 2.60215C27.1508 2.60215 19.7137 4.66979 14.1471 8.70256L12.9737 7.08292C18.9867 2.72676 26.881 0.602147 37.012 0.602147V2.60215ZM14.1471 8.70256C9.85787 11.8099 7.03024 14.5604 5.1668 18.2761C3.29352 22.0114 2.34233 26.8264 2.03006 34.1603L0.0318744 34.0752C0.34842 26.6407 1.31717 21.4908 3.37902 17.3795C5.4507 13.2486 8.57337 10.2708 12.9737 7.08292L14.1471 8.70256ZM88 36.2001C88 25.8911 85.4626 16.5084 77.2534 10.2317L78.4682 8.64287C87.3838 15.4598 90 25.5942 90 36.2001H88ZM77.2534 10.2317C68.9632 3.89297 54.6965 0.56075 37.127 2.59551L36.897 0.608786C54.7649 -1.46054 69.6205 1.87794 78.4682 8.64287L77.2534 10.2317Z" fill="black"/>
</svg>
