<svg width="90" height="72" viewBox="0 0 90 72" fill="none" xmlns="http://www.w3.org/2000/svg">
<path d="M5.04126 48.8006C-2.15939 41.9798 1.42231 30.7248 6.78741 28.117C2.16444 20.185 9.61039 14.4756 13.4226 15.4789C13.4226 6.65208 25.281 5.04705 29.3756 10.0625C29.3756 0.0317032 42.7776 -2.48352 47.0228 6.65208C57.0992 -1.22796 71.3466 10.0625 66.8258 18.6277C70.3547 14.816 74.4426 17.3111 76.2784 22.3263C81.4841 19.2117 90.7998 24.6623 86.2789 35.3688C90.7998 36.9261 88.8908 48.6059 86.2789 48.6059C89.8408 55.4192 80.5252 65.0289 77.0935 60.8161C77.0935 69.8243 67.4928 71.448 62.1287 66.4332C57.1869 74.2565 47.0227 70.8462 45.8933 65.0289C41.4717 70.6756 38.8392 69.7199 34.0345 65.0289C25.1794 72.3549 9.0141 63.595 12.5756 56.6034C6.78741 58.3391 2.98635 51.7206 5.04126 48.8006Z" fill="white" stroke="black" stroke-width="2" stroke-linecap="round" stroke-linejoin="round"/>
</svg>
