<svg width="56" height="59" viewBox="0 0 56 59" fill="none" xmlns="http://www.w3.org/2000/svg">
<path d="M23.1916 1.06581C20.5282 1.38499 17.8861 1.90518 15.2826 2.623C8.11299 4.75175 4.24264 10.3682 2.3049 18.1133C0.856206 23.7361 0.609604 29.6747 1.58588 35.4292C2.81482 42.4278 5.49196 48.6508 10.9584 52.78C13.529 54.6337 16.3815 55.9177 19.3672 56.5651C23.2082 57.6052 27.1492 58.0834 31.0956 57.9881C36.8782 57.7082 42.4211 56.3318 47.1431 52.1559C50.8554 48.9074 53.0379 44.4574 53.9915 39.3251C55.2663 32.513 55.4396 25.6194 53.8894 18.8015C52.5738 13.0101 49.9018 8.23358 45.2206 5.28248C42.2681 3.42201 38.9689 2.623 35.6798 1.89397C31.6004 0.995811 27.4598 0.949159 23.3191 1.02498" fill="white"/>
<path d="M23.1916 1.06581C20.5282 1.38499 17.8861 1.90518 15.2826 2.623C8.11299 4.75175 4.24264 10.3682 2.3049 18.1133C0.856206 23.7361 0.609604 29.6747 1.58588 35.4292C2.81482 42.4278 5.49196 48.6508 10.9584 52.78C13.529 54.6337 16.3815 55.9177 19.3672 56.5651C23.2082 57.6052 27.1492 58.0834 31.0956 57.9881C36.8782 57.7082 42.4211 56.3318 47.1431 52.1559C50.8554 48.9074 53.0379 44.4574 53.9915 39.3251C55.2663 32.513 55.4396 25.6194 53.8894 18.8015C52.5738 13.0101 49.9018 8.23358 45.2206 5.28248C42.2681 3.42201 38.9689 2.623 35.6798 1.89397C31.6004 0.995811 27.4598 0.949159 23.3191 1.02498" stroke="black" stroke-width="2" stroke-linecap="round" stroke-linejoin="round"/>
</svg>
