<svg width="58" height="68" viewBox="0 0 58 68" fill="none" xmlns="http://www.w3.org/2000/svg">
<path d="M33.0976 66.9551C35.8016 66.4014 38.5096 66.0324 41.2136 65.427C43.9176 64.8217 46.4243 63.0131 48.9187 61.0864C54.1006 57.0927 56.447 49.6443 56.8949 40.0329C57.3059 31.455 56.5703 23.2461 53.6362 16.0634C51.6391 11.1839 48.9269 8.0761 45.8284 5.92793C42.3962 3.60974 38.7995 2.17092 35.1441 1.65376C32.7919 1.18358 30.4261 0.966653 28.0595 1.00414C21.7393 1.34371 15.5013 2.7906 9.56736 7.06479C7.3031 8.69622 5.56895 11.649 4.11834 15.1407C2.00612 20.2343 1.17191 26.0735 1.04863 32.2965C0.942626 35.9911 1.01001 39.6952 1.25001 43.3696C1.57334 47.493 2.57502 51.3488 4.12657 54.4426C6.96203 60.2818 10.5536 63.5003 14.8109 65.0432C20.6339 67.1618 26.5021 67.0068 32.3785 66.992H32.9949" fill="white"/>
<path d="M33.0976 66.9551C35.8016 66.4014 38.5096 66.0324 41.2136 65.427C43.9176 64.8217 46.4243 63.0131 48.9187 61.0864C54.1006 57.0927 56.447 49.6443 56.8949 40.0329C57.3059 31.455 56.5703 23.2461 53.6362 16.0634C51.6391 11.1839 48.9269 8.0761 45.8284 5.92793C42.3962 3.60974 38.7995 2.17092 35.1441 1.65376C32.7919 1.18358 30.4261 0.966653 28.0595 1.00414C21.7393 1.34371 15.5013 2.7906 9.56736 7.06479C7.3031 8.69622 5.56895 11.649 4.11834 15.1407C2.00612 20.2343 1.17191 26.0735 1.04863 32.2965C0.942626 35.9911 1.01001 39.6952 1.25001 43.3696C1.57334 47.493 2.57502 51.3488 4.12657 54.4426C6.96203 60.2818 10.5536 63.5003 14.8109 65.0432C20.6339 67.1618 26.5021 67.0068 32.3785 66.992H32.9949" stroke="black" stroke-width="2" stroke-linecap="round" stroke-linejoin="round"/>
</svg>
