<svg width="73" height="73" viewBox="0 0 73 73" fill="none" xmlns="http://www.w3.org/2000/svg">
<path d="M36.5 1.88623L40.8955 13.7869C41.3737 15.0816 42.9885 15.5142 44.0499 14.6321L53.8069 6.52359L51.6632 19.0276C51.43 20.3879 52.6121 21.57 53.9724 21.3368L66.4764 19.1931L58.3679 28.9501C57.4858 30.0115 57.9184 31.6263 59.2131 32.1045L71.1138 36.5L59.2131 40.8955C57.9184 41.3737 57.4858 42.9885 58.3679 44.0499L66.4764 53.8069L53.9724 51.6632C52.6121 51.43 51.43 52.6121 51.6632 53.9724L53.8069 66.4764L44.0499 58.3679C42.9885 57.4858 41.3737 57.9184 40.8955 59.2131L36.5 71.1138L32.1045 59.2131C31.6263 57.9184 30.0115 57.4858 28.9501 58.3679L19.1931 66.4764L21.3368 53.9724C21.57 52.6121 20.3879 51.43 19.0276 51.6632L6.52359 53.8069L14.6321 44.0499C15.5142 42.9885 15.0816 41.3737 13.7869 40.8955L1.88623 36.5L13.7869 32.1045C15.0816 31.6263 15.5142 30.0115 14.6321 28.9501L6.52359 19.1931L19.0276 21.3368C20.3879 21.57 21.57 20.3879 21.3368 19.0276L19.1931 6.52359L28.9501 14.6321C30.0115 15.5142 31.6263 15.0816 32.1045 13.7869L36.5 1.88623Z" fill="white" stroke="black" stroke-width="2"/>
</svg>
