<svg width="11" height="10" viewBox="0 0 11 10" fill="none" xmlns="http://www.w3.org/2000/svg">
<path d="M8.45682 4.73601C8.3163 4.96339 8.20967 5.16983 8.0843 5.40657C7.85231 5.84976 7.59 6.2742 7.32769 6.69865C6.89095 7.37142 6.67327 7.65586 6.16875 8.37054C6.01307 8.58855 5.9497 8.75887 5.65707 9.16458C5.4956 9.35807 5.13297 9.74146 4.83643 9.74673C4.72316 9.76053 4.53768 9.68779 4.32546 9.55664C4.0526 9.38801 3.76237 9.1458 3.56667 8.92011C3.30813 8.59274 3.37511 8.57931 3.04878 8.29384C2.63506 7.91247 2.94624 8.20897 2.55126 7.79728C2.28556 7.54928 1.8669 7.31149 1.59541 7.03897C1.42645 6.8717 1.28202 6.69865 1.08853 6.53717C0.976631 6.44707 0.862517 6.29275 0.818406 6.16075C0.753346 5.99485 0.818077 5.72063 0.866284 5.54094C0.929649 5.37061 1.00017 5.12092 1.26639 5.09691C1.54198 5.05774 1.82642 5.27542 2.03864 5.40657C2.79079 5.85046 2.38316 5.71677 3.04878 6.23287C3.36932 6.49382 3.65598 6.77572 3.98589 7.0215C4.22485 7.21108 4.51508 7.45329 4.80668 7.5916C5.13796 7.73349 5.27354 7.64969 5.47248 7.39557C5.74859 7.08439 5.97343 6.72058 6.16437 6.37772C6.47131 5.81327 6.92047 5.35766 7.22741 4.79321C7.51561 4.25908 8.15339 3.14745 8.45676 2.62268C8.69812 2.16434 8.93948 1.706 9.17505 1.22313C9.32852 0.940907 9.54126 0.800053 9.9078 0.817093C10.4425 0.833287 10.4365 1.52089 10.2058 1.86018C10.0653 2.08756 9.91543 2.3301 9.75617 2.5878C9.58754 2.86065 9.48091 3.06708 8.91587 3.99323C8.75661 4.25093 8.63482 4.448 8.45682 4.73601Z" fill="black"/>
</svg>
